Coordinates
version=1
nRows=17
nColumns=24
inDegrees=yes

Units are S.I. units (second, meters, Newtons, ...)
Angles are in degrees.

endheader
time	pelvis_tilt	pelvis_list	pelvis_rotation	pelvis_tx	pelvis_ty	pelvis_tz	hip_flexion_r	hip_adduction_r	hip_rotation_r	knee_angle_r	ankle_angle_r	subtalar_angle_r	mtp_angle_r	hip_flexion_l	hip_adduction_l	hip_rotation_l	knee_angle_l	ankle_angle_l	subtalar_angle_l	mtp_angle_l	lumbar_extension	lumbar_bending	lumbar_rotation
      1.16233333	     -0.03893387	      0.90416367	     -0.26555629	      0.10113722	      1.01713052	      0.32200373	     21.93919779	     -4.54851460	     -7.80706796	    -74.89404256	     -0.51953156	     -7.65326239	     -0.96166000	     12.35136546	      2.25666351	     -5.98772184	    -16.39183165	      2.85210532	    -12.82244836	    -13.35917858	    -10.00009986	     -3.31541303	      0.17983572
      1.16650000	     -0.00007999	      0.74003087	     -0.24600068	      0.10594405	      1.01819879	      0.32185877	     22.55933835	     -4.28429458	     -7.74613343	    -74.81912856	     -0.11428452	     -7.56227101	     -0.95016096	     11.86183014	      2.10778790	     -5.92888269	    -16.11159612	      2.95680041	    -12.74476451	    -13.36323335	    -10.08553076	     -3.12194689	      0.12399378
      1.17066667	      0.01583791	      0.58080910	     -0.22598079	      0.11079211	      1.01923766	      0.32168744	     23.17984156	     -4.03220717	     -7.69939835	    -74.66333724	      0.25942695	     -7.54537427	     -0.93990028	     11.38305742	      1.96784748	     -5.86841181	    -15.80279426	      3.04315519	    -12.69151373	    -13.36741702	    -10.13318346	     -2.92360880	      0.08030241
      1.17483333	      0.12644167	      0.40050337	     -0.25397148	      0.11565323	      1.02043835	      0.32166931	     23.67294454	     -3.73046976	     -7.62804419	    -74.40606181	      0.59091526	     -7.58072694	     -0.91023769	     10.78718795	      1.77904397	     -5.90799740	    -15.47580723	      3.17403918	    -12.48863395	    -13.38891305	    -10.29396939	     -2.72428026	      0.05651787
      1.17900000	      0.11734611	      0.25646733	     -0.23907598	      0.12048101	      1.02137389	      0.32145455	     24.28752107	     -3.51263196	     -7.60920555	    -74.11723937	      0.92259355	     -7.66987701	     -0.90228141	     10.32823231	      1.66198881	     -5.83777177	    -15.14527096	      3.22217150	    -12.50446110	    -13.39491042	    -10.31383556	     -2.53424558	      0.03504831
      1.18316667	      0.11924223	      0.10781992	     -0.23248031	      0.12532193	      1.02231581	      0.32125890	     24.86477009	     -3.28912018	     -7.59753878	    -73.74915011	      1.23690228	     -7.81009665	     -0.89522815	      9.85034298	      1.53556157	     -5.78797015	    -14.80235386	      3.26691748	    -12.49694410	    -13.40286391	    -10.34846082	     -2.33979120	      0.00058048
      1.18733333	      0.14651379	     -0.05241628	     -0.23250237	      0.13017366	      1.02329129	      0.32107688	     25.38545339	     -3.05484068	     -7.60082513	    -73.29461662	      1.51249749	     -8.02500839	     -0.88974594	      9.33774291	      1.39331618	     -5.75729680	    -14.44482647	      3.30695112	    -12.47408500	    -13.41442340	    -10.41129848	     -2.12912683	     -0.03591596
      1.19150000	      0.15066973	     -0.19480940	     -0.22845911	      0.13505914	      1.02419563	      0.32084619	     25.90776771	     -2.85911068	     -7.62888448	    -72.78069919	      1.77839418	     -8.27266467	     -0.88843232	      8.84117435	      1.27579020	     -5.71881654	    -14.07117075	      3.35228585	    -12.45519644	    -13.42447752	    -10.44006592	     -1.93421660	     -0.06540263
      1.19566667	      0.25514496	     -0.38434364	     -0.23223928	      0.13996019	      1.02530324	      0.32066413	     26.27500186	     -2.60495154	     -7.67853842	    -72.13701563	      1.89327243	     -8.63999473	     -0.89445196	      8.22025201	      1.10063935	     -5.70502733	    -13.66792563	      3.41030795	    -12.38999887	    -13.44825873	    -10.58472995	     -1.70272111	     -0.09971555
      1.19983333	      0.30587507	     -0.53806418	     -0.22314110	      0.14486991	      1.02624135	      0.32039749	     26.68350257	     -2.41502578	     -7.74856230	    -71.46519992	      2.11998202	     -8.97091589	     -0.90640156	      7.66470631	      0.97158888	     -5.68788705	    -13.27580682	      3.45015847	    -12.35818727	    -13.47277642	    -10.66402539	     -1.48236182	     -0.12799675
      1.20400000	      0.38415757	     -0.68444757	     -0.19868236	      0.14974800	      1.02717993	      0.32010952	     27.03586903	     -2.24583833	     -7.84556357	    -70.72819737	      2.34477218	     -9.34479955	     -0.93733161	      7.08132418	      0.85252421	     -5.65656632	    -12.88071522	      3.49882707	    -12.30706721	    -13.50931585	    -10.78789785	     -1.27588288	     -0.16400020
      1.20816667	      0.35708810	     -0.81337922	     -0.19878290	      0.15464816	      1.02788970	      0.31985763	     27.49010769	     -2.08758817	     -7.91921090	    -69.94270184	      2.51011810	     -9.70801336	     -0.96181606	      6.61000127	      0.75253036	     -5.62827085	    -12.48560732	      3.50748684	    -12.34605636	    -13.52836108	    -10.77605557	     -1.08607818	     -0.20940321
      1.21233333	      0.41492087	     -0.96935619	     -0.15982679	      0.15953391	      1.02873375	      0.31955790	     27.80332651	     -1.92207468	     -8.05658063	    -69.05898266	      2.67021201	    -10.14092546	     -1.01415952	      6.05128027	      0.62420120	     -5.57345140	    -12.09315480	      3.54786499	    -12.31746513	    -13.55992766	    -10.87757578	     -0.87777371	     -0.26437783
      1.21650000	      0.35886250	     -1.06051785	     -0.15039651	      0.16445770	      1.02927489	      0.31928564	     28.23816501	     -1.82376699	     -8.15556453	    -68.17208149	      2.91755871	    -10.48664804	     -1.03906196	      5.62039026	      0.56389164	     -5.57755593	    -11.71510325	      3.54780277	    -12.35267051	    -13.57284447	    -10.82094397	     -0.72231923	     -0.30894419
      1.22066667	      0.42915680	     -1.22388339	     -0.10981779	      0.16935625	      1.03007662	      0.31896715	     28.47504456	     -1.66182867	     -8.32111814	    -67.13377977	      2.91932019	    -10.96768867	     -1.11397328	      5.04216455	      0.43073595	     -5.51109394	    -11.31055786	      3.59774836	    -12.34701223	    -13.60309007	    -10.93737530	     -0.48508450	     -0.37974179
      1.22483333	      0.44083527	     -1.35039430	     -0.07749960	      0.17430549	      1.03069755	      0.31865940	     28.75437189	     -1.54262482	     -8.47531666	    -66.06909863	      3.05087349	    -11.35022998	     -1.19311585	      4.53169532	      0.33425524	     -5.49011079	    -10.91923882	      3.61636379	    -12.35778120	    -13.63248741	    -10.96884551	     -0.27659067	     -0.45038067
      1.22900000	      0.50256193	     -1.47444308	     -0.01310421	      0.17920522	      1.03134964	      0.31832418	     28.94501897	     -1.44218646	     -8.66666161	    -64.93700301	      3.19848816	    -11.74003169	     -1.32677971	      3.97905319	      0.24039864	     -5.43318516	    -10.54244975	      3.65863833	    -12.33478518	    -13.67678980	    -11.07407317	     -0.08647662	     -0.52423920
